<?xml version="1.0" encoding="utf-8"?>
<svg xmlns="http://www.w3.org/2000/svg" width="78" height="60" viewBox="0 0 78 60" fill="none">
<g clip-path="url(#clip0_4957_6888)">
<path d="M69.0279 47.6489L71.5148 54.3704H66.4659L69.0302 47.6489H69.0279ZM66.365 45.0336L60.6358 59.3809H64.6829L65.5885 56.8467H72.3688L73.2275 59.3809H77.6194L71.8456 45.0312H66.365V45.0336ZM54.8619 59.3855H58.9677V45.0289H54.8619V59.3855ZM26.3635 45.0266L22.9381 56.4062L19.6582 45.0289H15.2287L19.914 59.3855H25.8286L30.5513 45.0266H26.3635ZM42.9553 48.1544H44.7196C47.2792 48.1544 48.9356 49.2905 48.9356 52.2374C48.9356 55.1843 47.2792 56.3204 44.7196 56.3204H42.9553V48.1544ZM38.8848 45.0266V59.3855H45.5408C49.0858 59.3855 50.2448 58.8036 51.4952 57.4959C52.3797 56.5777 52.9522 54.5652 52.9522 52.3649C52.9522 50.3454 52.4689 48.5462 51.6243 47.4263C50.104 45.4208 47.9127 45.0289 44.6445 45.0289H38.8848V45.0266ZM0 45.0081V59.3855H4.14092V48.4674H7.34808C8.41088 48.4674 9.16634 48.7294 9.67779 49.2696C10.3253 49.9536 10.5904 51.0549 10.5904 53.0697V59.3832H14.6023V51.4398C14.6023 45.7709 10.9447 45.0057 7.36685 45.0057H0V45.0081ZM32.2781 45.0266V59.3855H36.3838V45.0266H32.2781Z" fill="white"/>
<path d="M17.1107 16.4387C17.1107 16.4387 22.3895 8.74102 32.9331 7.94343V5.14955C21.2564 6.07698 11.1445 15.8498 11.1445 15.8498C11.1445 15.8498 16.8714 32.2119 32.9331 33.7097V30.7419C21.1461 29.2766 17.1107 16.4387 17.1107 16.4387ZM32.9331 24.8365V27.5562C24.0248 25.9866 21.552 16.8352 21.552 16.8352C21.552 16.8352 25.829 12.154 32.9331 11.3935V14.3775C32.9331 14.3775 32.9237 14.3775 32.919 14.3775C29.191 13.9346 26.2771 17.3777 26.2771 17.3777C26.2771 17.3777 27.91 23.1718 32.9307 24.8389M32.9331 0V5.15187C33.2756 5.12636 33.6181 5.10318 33.963 5.09158C47.2374 4.64874 55.8876 15.8521 55.8876 15.8521C55.8876 15.8521 45.9541 27.7904 35.603 27.7904C34.6551 27.7904 33.7659 27.7023 32.9331 27.5562V30.7419C33.6463 30.8324 34.3853 30.8834 35.1572 30.8834C44.7881 30.8834 51.7537 26.0237 58.4965 20.269C59.6156 21.1546 64.1929 23.3063 65.1337 24.2499C58.7217 29.5548 43.7769 33.8326 35.305 33.8326C34.4885 33.8326 33.7049 33.7839 32.9331 33.7097V38.1869H69.5397V0H32.9331ZM32.9331 11.3935V7.94343C33.2732 7.92024 33.6134 7.90169 33.963 7.8901C43.5094 7.59332 49.7712 15.9981 49.7712 15.9981C49.7712 15.9981 43.0073 25.2817 35.7531 25.2817C34.7091 25.2817 33.773 25.1171 32.9307 24.8365V14.3775C36.647 14.8203 37.3954 16.4433 39.6289 20.1252L44.598 15.9842C44.598 15.9842 40.9709 11.2822 34.8569 11.2822C34.1929 11.2822 33.5571 11.3285 32.9307 11.3935" fill="white"/>
</g>
<defs>
<clipPath id="clip0_4957_6888">
<rect width="78" height="60" fill="white"/>
</clipPath>
</defs>
</svg>