<?xml version="1.0" encoding="utf-8"?>
<svg xmlns="http://www.w3.org/2000/svg" width="96" height="96" viewBox="0 0 96 96" fill="none">
<g clip-path="url(#clip0_4957_6884)">
<path d="M43.492 50.3361H45.452L45.448 44.5281H43.492V43.2401H51.252V44.5281H49.32V50.3321H51.116C52.776 50.3321 53.864 49.2361 53.864 47.7481H55.144V51.6361H43.492V50.3361ZM60.744 51.6441H65.28L69.128 44.5281H71.056V43.2401H65.256V44.5281H66.932L64.128 49.7081L61.288 44.5281H63.328L63.32 43.2401H54.904V44.5281H56.832L60.744 51.6441ZM20.292 43.2401H11.872V44.5281H13.796L17.716 51.6441H22.248L26.096 44.5281H28.024V43.2401H22.224V44.5281H23.896L21.096 49.7081L18.256 44.5281H20.292V43.2401ZM35.12 43.0641C39.02 43.0641 41.112 45.0081 41.112 47.4481C41.112 49.9201 39.136 51.8921 35.14 51.8921C31.144 51.8921 29.152 49.9201 29.152 47.4481C29.152 45.0081 31.22 43.0641 35.12 43.0641ZM35.188 44.3841C33.856 44.3641 33.08 45.7761 33.052 47.3961C33.028 48.9561 33.652 50.5321 35.076 50.5561C36.54 50.5841 37.172 48.9961 37.196 47.4681C37.228 45.8481 36.524 44.4121 35.188 44.3881V44.3841ZM78.14 43.0641C82.036 43.0641 84.128 45.0081 84.128 47.4481C84.128 49.9201 82.156 51.8921 78.16 51.8921C74.16 51.8921 72.168 49.9201 72.168 47.4481C72.168 45.0081 74.24 43.0641 78.14 43.0641ZM76.072 47.3961C76.044 48.9561 76.672 50.5321 78.096 50.5561C79.56 50.5841 80.192 48.9961 80.216 47.4681C80.248 45.8481 79.544 44.4121 78.208 44.3881C76.872 44.3641 76.1 45.7761 76.072 47.3961ZM87.5 20.7281L82.624 25.6001C86.9495 32.2692 89.2452 40.051 89.232 48.0001C89.232 70.7721 70.772 89.2321 48 89.2321C25.228 89.2321 6.768 70.7721 6.768 48.0001C6.768 25.2281 25.228 6.76806 48 6.76806C56.28 6.76806 63.984 9.20806 70.444 13.4081L75.32 8.53206C67.2997 2.96208 57.7647 -0.0156607 48 6.19426e-05C21.492 6.19426e-05 0 21.4921 0 48.0001C0 74.5081 21.492 96.0001 48 96.0001C74.508 96.0001 96 74.5081 96 48.0001C96 37.8681 92.86 28.4721 87.5 20.7281ZM72.144 1.88806V3.23606C75.056 4.81206 77.796 6.67206 80.332 8.76406L73.492 15.6041C76.0729 17.6289 78.4027 19.9547 80.432 22.5321L87.264 15.7001C89.36 18.2441 91.22 20.9881 92.8 23.8521H94.112V1.89206L72.144 1.88806Z" fill="white"/>
</g>
<defs>
<clipPath id="clip0_4957_6884">
<rect width="96" height="96" fill="white"/>
</clipPath>
</defs>
</svg>