<?xml version="1.0" encoding="utf-8"?>
<svg xmlns="http://www.w3.org/2000/svg" width="104" height="35" viewBox="0 0 104 35" fill="none">
<path d="M0 0V21.5294C0 29.6366 5.642 34.9951 13 34.9951C16.5793 34.9951 19.7687 33.6229 22.074 31.2172V34.4132H27.17V0H22.022V21.2255C22.022 26.6838 18.3387 30.3705 13.585 30.3705C8.775 30.3705 5.15233 26.7793 5.15233 21.2255V0.00434412H0V0ZM32.24 0V34.4132H37.1367V31.265C39.3943 33.5751 42.5837 34.9994 46.0633 34.9994C47.7856 35.0155 49.4939 34.6892 51.0895 34.0393C52.685 33.3894 54.1361 32.4289 55.3588 31.2134C56.5815 29.9979 57.5515 28.5514 58.2127 26.9577C58.8738 25.3641 59.213 23.6548 59.2107 21.9289C59.2187 20.1989 58.884 18.4846 58.2259 16.8852C57.5678 15.2858 56.5994 13.8333 55.3768 12.6118C54.1542 11.3903 52.7018 10.4242 51.1038 9.76945C49.5058 9.11471 47.794 8.78439 46.0677 8.79763C44.4136 8.79553 42.7758 9.12526 41.2509 9.76737C39.726 10.4095 38.3448 11.351 37.1887 12.5364V0.00434412H32.2357L32.24 0ZM75.0057 8.84973C67.6953 8.84973 62.1573 14.7988 62.1573 21.8768C62.1573 29.3457 67.938 34.9473 75.4433 34.9473C80.0063 34.9473 83.733 32.9368 86.2333 29.5932L82.654 26.94C80.7907 29.4455 78.338 30.618 75.4433 30.618C71.227 30.618 67.847 27.5783 67.158 23.4965H87.5117V21.8768C87.5117 14.408 82.2163 8.84973 75.0057 8.84973ZM102.284 9.14501C99.5367 9.14501 97.526 10.4217 96.2997 12.4365V9.34042H91.3987V34.4132H96.3473V20.1486C96.3473 16.2665 98.7047 13.7653 101.942 13.7653H104V9.14067H102.284V9.14501ZM74.9017 13.1747C78.585 13.1747 81.679 15.728 82.511 19.558H67.2533C68.133 15.728 71.2227 13.1747 74.9017 13.1747ZM45.7297 13.2268C50.4357 13.2268 54.3097 17.0611 54.3097 21.9289C54.3189 24.2205 53.4208 26.4221 51.8123 28.051C50.2039 29.6799 48.0164 30.6031 45.7297 30.618C44.5921 30.6197 43.4655 30.3959 42.4146 29.9594C41.3638 29.5229 40.4095 28.8824 39.6067 28.0748C38.804 27.2671 38.1686 26.3083 37.7372 25.2535C37.3059 24.1987 37.087 23.0688 37.0933 21.9289C37.0853 20.7883 37.3027 19.6574 37.7331 18.6014C38.1634 17.5454 38.7981 16.5852 39.6006 15.7762C40.403 14.9672 41.3574 14.3254 42.4086 13.8879C43.4598 13.4503 44.5871 13.2257 45.7253 13.2268H45.7297Z" fill="white"/>
</svg>