<?xml version="1.0" encoding="utf-8"?>
<svg xmlns="http://www.w3.org/2000/svg" id="Porsche_SE" data-name="Porsche SE" viewBox="0 0 1000 92">
  <path d="M0,1h53.3623c31.0786,0,37.6465,4.7643,37.6465,29.9116v2.1177c0,25.2796-6.8022,29.9117-37.6465,29.9117H17.3574v28.059H0V1ZM50.313,47.7207c21.5791,0,23.4556-1.9854,23.4556-14.9564v-1.5881c0-13.1027-1.8765-15.0881-23.4556-15.0881H17.3574v31.6326h32.9556ZM106.3617,47.3236v-2.6472C106.3617,5.7646,113.1639,0,156.9091,0h3.5186c43.7446,0,50.4297,5.7646,50.4297,44.6764v2.6472c0,39.0441-6.6851,44.6764-50.4297,44.6764h-3.5186c-43.7451,0-50.5474-5.7645-50.5474-44.6764ZM159.8412,76.309c30.8442,0,33.4243-2.7795,33.4243-29.5149v-1.5881c0-26.9999-2.5801-29.7794-33.4243-29.7794h-2.3457c-30.8442,0-33.4248,2.7795-33.4248,29.7794v1.5881c0,26.7354,2.5806,29.5149,33.4248,29.5149h2.3457ZM321.2171,91l-15.9758-32.3016c11.5414-3.2074,15.2733-10.9679,15.2733-23.7541v-7.8712c0-19.9852-6.2158-26.0731-31.6655-26.0731h-60.2817v90h17.3574v-29.3826h42.1422l14.3643,29.3826h18.786ZM245.9247,46.7938v-30.7057h36.3564c17.8267,0,20.5239,2.1176,20.5239,14.1617v2.1177c0,11.6468-3.0493,14.4263-19.5854,14.4263h-37.2949ZM335.8882,65.0589v-2.9117h17.3574v2.2499c0,11.3823,3.167,12.8387,28.3818,12.8387h3.166c24.3945,0,27.3262-1.9854,27.3262-11.7796v-.9263c0-9.5297-2.3457-11.6474-29.3193-11.6474-41.5166,0-45.7393-4.6326-45.7393-25.9414v-1.0586c0-20.7798,6.6855-25.8826,40.6963-25.8826h3.9873c40.5781,0,45.1523,5.7646,45.1523,26.4121v2.3822h-17.3574v-1.4559c0-10.3238-2.3457-12.8382-25.2148-12.8382h-3.167c-24.1592,0-26.8564,1.8526-26.8564,11.3823v.9263c0,9.0002,1.6416,10.7205,30.2578,10.7205,39.1709,0,44.8008,4.3676,44.8008,26.3387v1.0586c0,21.8383-6.4502,27.0733-42.8066,27.0733h-3.7529c-42.9248,0-46.9121-4.0436-46.9121-26.9411ZM445.1929,47.3236v-2.6472c0-38.5145,6.8018-44.6764,49.8428-44.6764h3.5186c38.8193,0,44.8008,5.2356,44.8008,28.5293v3.4413h-17.0059v-1.7204c0-11.5146-2.1104-14.8236-28.2637-14.8236h-2.4629c-29.7891,0-32.7207,2.515-32.7207,29.7794v1.5881c0,26.8677,2.6973,29.5149,32.7207,29.5149h2.4629c26.9736,0,29.3193-2.5144,29.3193-15.6176v-1.4559h17.0059v4.2353c0,22.5001-6.6846,28.5292-45.7393,28.5292h-3.6357c-42.5723,0-49.8428-5.6323-49.8428-44.6764ZM561.6872,1h17.5918v35.4706h61.8066V1h17.4746v90h-17.4746v-37.9855h-61.8066v37.9855h-17.5918V1ZM678.5462,1h82.3301v15.2203h-64.9727v21.7061h54.8057v14.4263h-54.8057v23.0297h65.9111v15.6176h-83.2686V1ZM805.6642,65.0589v-2.9117h17.3574v2.2499c0,11.3823,3.167,12.8387,28.3818,12.8387h3.166c24.3945,0,27.3262-1.9854,27.3262-11.7796v-.9263c0-9.5297-2.3457-11.6474-29.3193-11.6474-41.5166,0-45.7393-4.6326-45.7393-25.9414v-1.0586c0-20.7798,6.6855-25.8826,40.6963-25.8826h3.9873c40.5781,0,45.1523,5.7646,45.1523,26.4121v2.3822h-17.3574v-1.4559c0-10.3238-2.3457-12.8382-25.2148-12.8382h-3.167c-24.1592,0-26.8564,1.8526-26.8564,11.3823v.9263c0,9.0002,1.6416,10.7205,30.2578,10.7205,39.1709,0,44.8008,4.3676,44.8008,26.3387v1.0586c0,21.8383-6.4502,27.0733-42.8066,27.0733h-3.7529c-42.9248,0-46.9121-4.0436-46.9121-26.9411ZM916.7314,1h82.3301v15.2203h-64.9727v21.7061h54.8057v14.4263h-54.8057v23.0297h65.9111v15.6176h-83.2686V1Z" style="fill: #fff;"/>
</svg>